#Comment line ignore any data following # character 
#Hierarchical Translation and Rotation (.htr) file 
[Header]	
#Header keywords are followed by a single value 
FileType HTR		#Single word string
DataType HTRS		#Translation followed by rotation and scale data
FileVersion 1		#integer
NumSegments 64		#integer
NumFrames 3		#integer
DataFrameRate 30		#integer, data frame rate in this file
EulerRotationOrder ZYX
CalibrationUnits mm
RotationUnits Degrees
GlobalAxisofGravity Y
BoneLengthAxis Y
ScaleFactor 1.00
[SegmentNames&Hierarchy]
#CHILD	PARENT
Pinger_Root GLOBAL
Pelvis Pinger_Root
L_Hip Pelvis
R_Hip Pelvis
Rear_Leg01 Pelvis
Spine1 Pelvis
L_Leg01 L_Hip
L_Leg02 L_Leg01
L_Leg03 L_Leg02
L_Foot L_Leg03
L_Toe1_01 L_Foot
L_Toe2_01 L_Foot
L_Toe3_01 L_Foot
planeAlignerLeft L_Foot
L_Toe1_02 L_Toe1_01
L_Toe1_03 L_Toe1_02
L_Toe2_02 L_Toe2_01
L_Toe2_03 L_Toe2_02
L_Toe3_02 L_Toe3_01
L_Toe3_03 L_Toe3_02
planeLockWeightLeft planeAlignerLeft
R_Leg01 R_Hip
R_Leg02 R_Leg01
R_Leg03 R_Leg02
R_Foot R_Leg03
planeAlignerRight R_Foot
R_Toe1_01 R_Foot
R_Toe2_01 R_Foot
R_Toe3_01 R_Foot
planeLockWeightRight planeAlignerRight
R_Toe1_02 R_Toe1_01
R_Toe1_03 R_Toe1_02
R_Toe2_02 R_Toe2_01
R_Toe2_03 R_Toe2_02
R_Toe3_02 R_Toe3_01
R_Toe3_03 R_Toe3_02
Rear_Leg02 Rear_Leg01
Rear_Leg03 Rear_Leg02
Rear_Leg04 Rear_Leg03
Rear_Foot Rear_Leg04
planeAlignerCenter Rear_Foot
Rear_Toe1_01 Rear_Foot
Rear_Toe2_01 Rear_Foot
Rear_Toe3_01 Rear_Foot
planeLockWeightCenter planeAlignerCenter
Rear_Toe1_02 Rear_Toe1_01
Rear_Toe1_03 Rear_Toe1_02
Rear_Toe2_02 Rear_Toe2_01
Rear_Toe2_03 Rear_Toe2_02
Rear_Toe3_02 Rear_Toe3_01
Rear_Toe3_03 Rear_Toe3_02
Back_Bone Spine1
Head Spine1
Motor_Bone Back_Bone
Ping_Mechanism Back_Bone
BN_LookIK Head
bottomMouth Head
L_Mouth01 Head
L_mouthFront Head
mouthGun Head
R_Mouth01 Head
R_mouthFront Head
TopMouth Head
weapon_bone Head
[BasePosition]
#SegmentName Tx, Ty, Tz, Rx, Ry, Rz, BoneLength
Pinger_Root 0.000000 0.000000 0.000000 -90.000000 0.000000 0.000000 10.000000 
Pelvis 0.000000 0.000000 0.000000 0.000000 0.000000 0.000000 10.000000 
L_Hip 0.000000 0.000000 0.000000 0.000000 0.000000 0.000000 10.000000 
R_Hip 0.000000 0.000000 0.000000 0.000000 0.000000 0.000000 10.000000 
Rear_Leg01 0.000000 0.000000 0.000000 0.000000 0.000000 0.000000 10.000000 
Spine1 0.000000 0.000000 0.000000 0.000000 0.000000 0.000000 10.000000 
L_Leg01 0.000000 0.000000 0.000000 0.000000 0.000000 0.000000 10.000000 
L_Leg02 0.000000 0.000000 0.000000 0.000000 0.000000 0.000000 10.000000 
L_Leg03 0.000000 0.000000 0.000000 0.000000 0.000000 0.000000 10.000000 
L_Foot 0.000000 0.000000 0.000000 0.000000 0.000000 0.000000 10.000000 
L_Toe1_01 0.000000 0.000000 0.000000 0.000000 0.000000 0.000000 10.000000 
L_Toe2_01 0.000000 0.000000 0.000000 0.000000 0.000000 0.000000 10.000000 
L_Toe3_01 0.000000 0.000000 0.000000 0.000000 0.000000 0.000000 10.000000 
planeAlignerLeft 0.000000 0.000000 0.000000 0.000000 0.000000 0.000000 10.000000 
L_Toe1_02 0.000000 0.000000 0.000000 0.000000 0.000000 0.000000 10.000000 
L_Toe1_03 0.000000 0.000000 0.000000 0.000000 0.000000 0.000000 10.000000 
L_Toe2_02 0.000000 0.000000 0.000000 0.000000 0.000000 0.000000 10.000000 
L_Toe2_03 0.000000 0.000000 0.000000 0.000000 0.000000 0.000000 10.000000 
L_Toe3_02 0.000000 0.000000 0.000000 0.000000 0.000000 0.000000 10.000000 
L_Toe3_03 0.000000 0.000000 0.000000 0.000000 0.000000 0.000000 10.000000 
planeLockWeightLeft 0.000000 0.000000 0.000000 0.000000 0.000000 0.000000 10.000000 
R_Leg01 0.000000 0.000000 0.000000 0.000000 0.000000 0.000000 10.000000 
R_Leg02 0.000000 0.000000 0.000000 0.000000 0.000000 0.000000 10.000000 
R_Leg03 0.000000 0.000000 0.000000 0.000000 0.000000 0.000000 10.000000 
R_Foot 0.000000 0.000000 0.000000 0.000000 0.000000 0.000000 10.000000 
planeAlignerRight 0.000000 0.000000 0.000000 0.000000 0.000000 0.000000 10.000000 
R_Toe1_01 0.000000 0.000000 0.000000 0.000000 0.000000 0.000000 10.000000 
R_Toe2_01 0.000000 0.000000 0.000000 0.000000 0.000000 0.000000 10.000000 
R_Toe3_01 0.000000 0.000000 0.000000 0.000000 0.000000 0.000000 10.000000 
planeLockWeightRight 0.000000 0.000000 0.000000 0.000000 0.000000 0.000000 10.000000 
R_Toe1_02 0.000000 0.000000 0.000000 0.000000 0.000000 0.000000 10.000000 
R_Toe1_03 0.000000 0.000000 0.000000 0.000000 0.000000 0.000000 10.000000 
R_Toe2_02 0.000000 0.000000 0.000000 0.000000 0.000000 0.000000 10.000000 
R_Toe2_03 0.000000 0.000000 0.000000 0.000000 0.000000 0.000000 10.000000 
R_Toe3_02 0.000000 0.000000 0.000000 0.000000 0.000000 0.000000 10.000000 
R_Toe3_03 0.000000 0.000000 0.000000 0.000000 0.000000 0.000000 10.000000 
Rear_Leg02 0.000000 0.000000 0.000000 0.000000 0.000000 0.000000 10.000000 
Rear_Leg03 0.000000 0.000000 0.000000 0.000000 0.000000 0.000000 10.000000 
Rear_Leg04 0.000000 0.000000 0.000000 0.000000 0.000000 0.000000 10.000000 
Rear_Foot 0.000000 0.000000 0.000000 0.000000 0.000000 0.000000 10.000000 
planeAlignerCenter 0.000000 0.000000 0.000000 0.000000 0.000000 0.000000 10.000000 
Rear_Toe1_01 0.000000 0.000000 0.000000 0.000000 0.000000 0.000000 10.000000 
Rear_Toe2_01 0.000000 0.000000 0.000000 0.000000 0.000000 0.000000 10.000000 
Rear_Toe3_01 0.000000 0.000000 0.000000 0.000000 0.000000 0.000000 10.000000 
planeLockWeightCenter 0.000000 0.000000 0.000000 0.000000 0.000000 0.000000 10.000000 
Rear_Toe1_02 0.000000 0.000000 0.000000 0.000000 0.000000 0.000000 10.000000 
Rear_Toe1_03 0.000000 0.000000 0.000000 0.000000 0.000000 0.000000 10.000000 
Rear_Toe2_02 0.000000 0.000000 0.000000 0.000000 0.000000 0.000000 10.000000 
Rear_Toe2_03 0.000000 0.000000 0.000000 0.000000 0.000000 0.000000 10.000000 
Rear_Toe3_02 0.000000 0.000000 0.000000 0.000000 0.000000 0.000000 10.000000 
Rear_Toe3_03 0.000000 0.000000 0.000000 0.000000 0.000000 0.000000 10.000000 
Back_Bone 0.000000 0.000000 0.000000 0.000000 0.000000 0.000000 10.000000 
Head 0.000000 0.000000 0.000000 0.000000 0.000000 0.000000 10.000000 
Motor_Bone 0.000000 0.000000 0.000000 0.000000 0.000000 0.000000 10.000000 
Ping_Mechanism 0.000000 0.000000 0.000000 0.000000 0.000000 0.000000 10.000000 
BN_LookIK 0.000000 0.000000 0.000000 0.000000 0.000000 0.000000 10.000000 
bottomMouth 0.000000 0.000000 0.000000 0.000000 0.000000 0.000000 10.000000 
L_Mouth01 0.000000 0.000000 0.000000 0.000000 0.000000 0.000000 10.000000 
L_mouthFront 0.000000 0.000000 0.000000 0.000000 0.000000 0.000000 10.000000 
mouthGun 0.000000 0.000000 0.000000 0.000000 0.000000 0.000000 10.000000 
R_Mouth01 0.000000 0.000000 0.000000 0.000000 0.000000 0.000000 10.000000 
R_mouthFront 0.000000 0.000000 0.000000 0.000000 0.000000 0.000000 10.000000 
TopMouth 0.000000 0.000000 0.000000 0.000000 0.000000 0.000000 10.000000 
weapon_bone 0.000000 0.000000 0.000000 0.000000 0.000000 0.000000 10.000000 
#Beginning of Data. Separated by tabs
#Fr	Tx	Ty	Tz	Rx	Ry	Rz	SF
[Pinger_Root]
208 0.000000 0.000000 0.000000 -0.000075 -0.000000 -0.000020 0.000000
209 0.000000 0.000000 0.000000 -0.000075 -0.000000 -0.000020 0.000000
210 0.000000 0.000000 0.000000 -0.000075 -0.000000 -0.000020 0.000000
[Pelvis]
208 523.742004 1002.308594 3618.377686 -88.445930 -83.787186 88.465782 3790.987549
209 455.511261 1002.309448 3604.833740 -89.977882 -82.682487 89.979034 3769.209717
210 388.901398 1013.552307 3606.610352 -89.425720 -81.939003 89.431595 3766.453369
[L_Hip]
208 5.766392 125.831482 872.656799 -121.855164 -74.309326 30.031721 881.701050
209 5.766392 125.831482 872.656799 -121.855164 -74.309326 30.031721 881.701050
210 5.766392 125.831482 872.656799 -121.855164 -74.309326 30.031721 881.701050
[R_Hip]
208 5.765438 125.836372 -872.654907 -61.965321 72.290924 26.037994 881.699829
209 5.765438 125.836372 -872.654907 -61.967369 72.291161 26.036251 881.699829
210 5.765438 125.836372 -872.654907 -61.969482 72.291443 26.034512 881.699829
[Rear_Leg01]
208 -192.298416 -925.602966 -0.001907 170.618881 -7.898141 -127.928650 945.367432
209 -192.298416 -925.602966 -0.001907 171.219131 -7.223925 -129.007690 945.367432
210 -192.298416 -925.602966 -0.001907 172.103973 -6.384467 -129.739044 945.367432
[Spine1]
208 290.604584 5.007505 0.000477 0.001879 0.001406 16.393082 290.647736
209 290.604584 5.007505 0.000477 0.001874 0.001413 15.953526 290.647736
210 290.604584 5.007505 0.000477 0.003589 0.001173 15.958020 290.647736
[L_Leg01]
208 761.932007 -0.002384 -0.069261 74.546783 -29.624491 -69.720078 761.932068
209 761.932007 -0.002384 -0.069261 73.668594 -31.596470 -69.498489 761.932068
210 761.932007 -0.002384 -0.069261 73.240532 -32.791611 -70.038902 761.932068
[L_Leg02]
208 1441.140503 -0.000954 -0.000715 2.479322 0.029092 -97.274323 1441.140503
209 1441.140503 -0.000954 -0.000715 2.671574 0.071621 -99.323006 1441.140503
210 1441.140503 -0.000954 -0.000715 2.786592 0.100023 -100.534706 1441.140503
[L_Leg03]
208 1686.963989 -0.000715 -0.000954 -0.057743 0.029741 125.914673 1686.963989
209 1686.963989 -0.000715 -0.000954 -0.057577 0.030062 126.552315 1686.963989
210 1686.963989 -0.000715 -0.000954 -0.064112 0.032463 126.922989 1686.963989
[L_Foot]
208 3041.570068 -30.715107 11.297464 -7.419368 24.278780 32.231354 3041.746094
209 3041.570068 -30.715107 11.297464 -6.326224 24.359413 33.152878 3041.746094
210 3041.570068 -30.715107 11.297464 -5.231146 24.423992 34.076481 3041.746094
[L_Toe1_01]
208 -188.216690 -224.732346 -21.137953 94.465988 -11.872433 -177.606140 293.899567
209 -188.216690 -224.732346 -21.137953 94.578346 -11.877087 -179.088959 293.899567
210 -188.216690 -224.732346 -21.137953 94.641678 -11.876992 179.943832 293.899567
[L_Toe2_01]
208 200.746536 -219.926590 148.838394 -88.929573 -33.507603 -49.671230 332.896027
209 200.746536 -219.926590 148.838394 -89.588402 -34.058659 -47.808914 332.896027
210 200.746536 -219.926590 148.838394 -90.059692 -34.418545 -46.506889 332.896027
[L_Toe3_01]
208 188.832520 -219.859131 -191.078659 -97.298607 10.509174 -59.387936 347.140900
209 188.832520 -219.859131 -191.078659 -96.935432 10.960171 -56.960297 347.140900
210 188.832520 -219.859131 -191.078659 -96.684700 11.257551 -55.306824 347.140900
[planeAlignerLeft]
208 0.812531 -811.448792 -0.314951 0.000000 -90.000000 -90.001900 811.449280
209 0.812531 -811.448792 -0.314951 0.000000 -90.000000 -90.001900 811.449280
210 0.812531 -811.448792 -0.314951 0.000000 -90.000000 -90.001900 811.449280
[L_Toe1_02]
208 413.761139 0.000477 0.000000 0.000203 -25.410625 -0.000182 413.761139
209 413.761139 0.000477 0.000000 0.000203 -25.410625 -0.000182 413.761139
210 413.761139 0.000477 0.000000 0.000203 -25.410625 -0.000182 413.761139
[L_Toe1_03]
208 464.317322 0.000358 -0.000089 0.004304 58.352589 0.004304 464.317322
209 464.317322 0.000358 -0.000089 0.004360 58.772141 0.004360 464.317322
210 464.317322 0.000358 -0.000089 0.004377 58.891449 0.004377 464.317322
[L_Toe2_02]
208 342.235809 -0.000477 0.000238 0.001193 -69.499092 0.001193 342.235809
209 342.235809 -0.000477 0.000238 0.001191 -70.507324 0.001191 342.235809
210 342.235809 -0.000477 0.000238 0.001190 -71.101936 0.001190 342.235809
[L_Toe2_03]
208 420.210846 -0.000715 0.000000 0.011698 78.484467 0.011698 420.210846
209 420.210846 -0.000715 0.000000 0.014556 80.750679 0.014556 420.210846
210 420.210846 -0.000715 0.000000 0.017211 82.180000 0.017211 420.210846
[L_Toe3_02]
208 329.270111 0.000954 0.000000 0.001176 -82.813591 0.001176 329.270111
209 329.270111 0.000954 0.000000 0.002927 -83.190613 0.002927 329.270111
210 329.270111 0.000954 0.000000 0.004677 -83.567421 0.004678 329.270111
[L_Toe3_03]
208 439.137451 -0.001907 0.000954 179.990417 67.492462 179.997543 439.137451
209 439.137451 -0.001907 0.000954 179.991119 64.397484 179.998291 439.137451
210 439.137451 -0.001907 0.000954 179.991486 62.397919 179.998688 439.137451
[planeLockWeightLeft]
208 -0.000954 0.000238 -0.000305 -0.011826 -0.004376 0.005620 0.001029
209 -0.000954 0.000238 -0.000305 -0.011826 -0.004376 0.005620 0.001029
210 -0.000954 0.000238 -0.000305 -0.011826 -0.004376 0.005620 0.001029
[R_Leg01]
208 761.455627 -0.001907 -0.000358 111.196358 -30.117880 82.480873 761.455688
209 761.455627 -0.001907 -0.000358 111.738174 -30.792782 81.042519 761.455688
210 761.455627 -0.001907 -0.000358 112.069000 -30.612436 79.689384 761.455688
[R_Leg02]
208 1441.140625 0.000000 -0.000238 -1.220320 -0.593454 -141.078125 1441.140625
209 1441.140625 0.000000 -0.000238 -1.215168 -0.588047 -140.852539 1441.140625
210 1441.140625 0.000000 -0.000238 -1.202620 -0.573847 -139.911850 1441.140625
[R_Leg03]
208 1686.963989 0.000954 0.001431 0.120999 -0.076062 143.076080 1686.963989
209 1686.963989 0.000954 0.001431 0.121096 -0.075908 142.930008 1686.963989
210 1686.963989 0.000954 0.001431 0.121192 -0.075753 142.783920 1686.963989
[R_Foot]
208 3041.560059 -30.531288 -11.204481 6.557903 -25.807503 65.826843 3041.734131
209 3041.560059 -30.531288 -11.204481 7.914515 -25.801870 65.005554 3041.734131
210 3041.560059 -30.531288 -11.204481 9.270753 -25.778744 64.184761 3041.734131
[planeAlignerRight]
208 -0.635147 -812.270569 -0.364304 0.000000 -89.960434 -90.005180 812.270874
209 -0.635147 -812.270569 -0.364304 0.000000 -89.960434 -90.005180 812.270874
210 -0.635147 -812.270569 -0.364304 0.000000 -89.960434 -90.005180 812.270874
[R_Toe1_01]
208 -188.383347 -224.864899 21.052242 92.487068 -6.014298 -177.047012 294.101532
209 -188.383347 -224.864899 21.052242 92.533783 -5.824204 -177.031174 294.101532
210 -188.383347 -224.864899 21.052242 92.550919 -5.751946 -177.024918 294.101532
[R_Toe2_01]
208 200.637817 -220.002121 -148.787384 -97.853371 18.316261 -57.988674 332.857574
209 200.637817 -220.002121 -148.787384 -97.713837 18.063766 -57.886974 332.857574
210 200.637817 -220.002121 -148.787384 -97.574966 17.811056 -57.786072 332.857574
[R_Toe3_01]
208 188.606735 -220.092957 191.126343 -78.418060 -27.402618 -63.129253 347.192566
209 188.606735 -220.092957 191.126343 -78.327148 -27.483599 -63.162735 347.192566
210 188.606735 -220.092957 191.126343 -78.236092 -27.564510 -63.196354 347.192566
[planeLockWeightRight]
208 -0.000477 0.000000 0.000000 -0.011823 -0.004379 -0.000027 0.000477
209 -0.000477 0.000000 0.000000 -0.011823 -0.004379 -0.000027 0.000477
210 -0.000477 0.000000 0.000000 -0.011823 -0.004379 -0.000027 0.000477
[R_Toe1_02]
208 413.762085 0.000477 -0.000119 0.001387 -25.558706 0.001387 413.762085
209 413.762085 0.000477 -0.000119 0.001387 -25.560329 0.001387 413.762085
210 413.762085 0.000477 -0.000119 0.001387 -25.561954 0.001387 413.762085
[R_Toe1_03]
208 464.317810 0.000000 0.001088 0.005035 63.043480 0.005035 464.317810
209 464.317810 0.000000 0.001088 0.005037 63.053055 0.005037 464.317810
210 464.317810 0.000000 0.001088 0.005039 63.062634 0.005039 464.317810
[R_Toe2_02]
208 342.234741 -0.000954 0.000238 0.001195 -68.140999 0.001195 342.234741
209 342.234741 -0.000954 0.000238 0.001192 -69.848572 0.001192 342.234741
210 342.234741 -0.000954 0.000238 0.001190 -71.150604 0.001190 342.234741
[R_Toe2_03]
208 420.210846 0.000715 -0.000268 0.009222 75.376854 0.009222 420.210846
209 420.210846 0.000715 -0.000268 0.012495 79.220810 0.012495 420.210846
210 420.210846 0.000715 -0.000268 0.017595 82.350700 0.017595 420.210846
[R_Toe3_02]
208 329.270355 -0.000477 -0.000954 0.001184 -75.028786 0.001184 329.270355
209 329.270355 -0.000477 -0.000954 0.001184 -75.033287 0.001184 329.270355
210 329.270355 -0.000477 -0.000954 0.001184 -75.037773 0.001184 329.270355
[R_Toe3_03]
208 439.137939 0.000238 0.001431 -0.014060 84.647858 -0.010560 439.137939
209 439.137939 0.000238 0.001431 -0.014092 84.661751 -0.010592 439.137939
210 439.137939 0.000238 0.001431 -0.014124 84.675713 -0.010624 439.137939
[Rear_Leg02]
208 1162.777710 -0.029802 0.005960 -5.155175 6.418602 -107.916527 1162.777710
209 1162.777710 -0.029802 0.005960 -5.263949 6.331463 -108.855659 1162.777710
210 1162.777710 -0.029802 0.005960 -5.285365 6.314970 -109.014687 1162.777710
[Rear_Leg03]
208 607.192505 -0.013351 -0.073195 0.010244 -0.005587 73.575439 607.192505
209 607.192505 -0.013351 -0.073195 0.010227 -0.005618 73.915062 607.192505
210 607.192505 -0.013351 -0.073195 0.010225 -0.005622 73.958366 607.192505
[Rear_Leg04]
208 995.874512 -0.020504 -0.011921 -0.045137 -0.018194 79.509926 995.874573
209 995.874512 -0.020504 -0.011921 -0.045250 -0.017912 80.225830 995.874573
210 995.874512 -0.020504 -0.011921 -0.045269 -0.017863 80.348709 995.874573
[Rear_Foot]
208 3096.176270 -0.067472 -0.041425 141.833694 77.891037 -37.548470 3096.176270
209 3096.176270 -0.067472 -0.041425 138.520294 78.721848 -40.814823 3096.176270
210 3096.176270 -0.067472 -0.041425 134.700211 79.509956 -44.587898 3096.176270
[planeAlignerCenter]
208 0.350077 0.966311 -838.790894 0.000009 0.000003 -179.999985 838.791565
209 0.350077 0.966311 -838.790894 0.000009 0.000003 -179.999985 838.791565
210 0.350077 0.966311 -838.790894 0.000009 0.000003 -179.999985 838.791565
[Rear_Toe1_01]
208 0.653352 83.966492 -371.173737 4.614775 24.792356 103.367393 380.553192
209 0.653352 83.966492 -371.173737 4.715508 25.544991 103.392471 380.553192
210 0.653352 83.966492 -371.173737 4.817253 26.297565 103.419167 380.553192
[Rear_Toe2_01]
208 178.200760 -294.826019 -362.060547 -8.468363 18.358896 -73.307426 499.765686
209 178.200760 -294.826019 -362.060547 -8.500769 18.884895 -73.317703 499.765686
210 178.200760 -294.826019 -362.060547 -8.537596 19.530910 -73.329025 499.765686
[Rear_Toe3_01]
208 -153.359680 -308.780914 -362.060852 4.597897 15.526137 -119.314484 499.952881
209 -153.359680 -308.780914 -362.060852 4.506330 16.011618 -119.341263 499.952881
210 -153.359680 -308.780914 -362.060852 4.387368 16.597164 -119.376205 499.952881
[planeLockWeightCenter]
208 -0.000062 0.000238 0.000000 -0.011814 -0.004373 -0.000015 0.000246
209 -0.000062 0.000238 0.000000 -0.011814 -0.004373 -0.000015 0.000246
210 -0.000062 0.000238 0.000000 -0.011814 -0.004373 -0.000015 0.000246
[Rear_Toe1_02]
208 379.707825 0.194073 0.000477 0.001332 -33.490997 0.001332 379.707855
209 379.707825 0.194073 0.000477 0.001332 -33.485302 0.001332 379.707855
210 379.707825 0.194073 0.000477 0.001120 -33.420151 0.002042 379.707855
[Rear_Toe1_03]
208 500.129700 0.165701 0.000119 -0.004904 68.806175 -0.001347 500.129761
209 500.129700 0.165701 0.000119 -0.004757 67.719765 -0.001193 500.129761
210 500.129700 0.165701 0.000119 -0.004624 66.633171 -0.001053 500.129761
[Rear_Toe2_02]
208 340.494507 0.000238 -0.000954 0.001179 -78.987656 0.001179 340.494507
209 340.494507 0.000238 -0.000954 0.001179 -79.011848 0.001179 340.494507
210 340.494507 0.000238 -0.000954 0.001179 -79.036049 0.001179 340.494507
[Rear_Toe2_03]
208 433.103577 0.000000 0.000238 0.030492 85.588333 0.030492 433.103546
209 433.103577 0.000000 0.000238 0.030864 85.641350 0.030864 433.103546
210 433.103577 0.000000 0.000238 0.031245 85.694656 0.031245 433.103546
[Rear_Toe3_02]
208 340.494141 -0.000358 -0.000477 -0.002474 -49.777157 -0.002474 340.494171
209 340.494141 -0.000358 -0.000477 -0.002473 -49.865070 -0.002473 340.494171
210 340.494141 -0.000358 -0.000477 -0.002473 -49.952999 -0.002473 340.494171
[Rear_Toe3_03]
208 433.103577 0.001431 -0.000238 0.000425 44.100033 -0.003373 433.103546
209 433.103577 0.001431 -0.000238 0.000421 44.194744 -0.003375 433.103546
210 433.103577 0.001431 -0.000238 0.000418 44.289448 -0.003377 433.103546
[Back_Bone]
208 1312.175781 -701.934692 0.000954 0.018581 0.001644 -85.655861 1488.125488
209 1312.175781 -701.934692 0.000954 0.019011 0.001628 -85.657005 1488.125488
210 1312.175781 -701.934692 0.000954 0.019441 0.001612 -85.658134 1488.125488
[Head]
208 1406.159424 809.709290 0.001431 0.001938 0.001325 21.271362 1622.625488
209 1406.159424 809.709290 0.001431 0.001938 0.001325 21.273035 1622.625488
210 1406.159424 809.709290 0.001431 0.001938 0.001325 21.274714 1622.625488
[Motor_Bone]
208 1158.364380 -417.834747 0.000477 -0.095385 0.076104 -105.915703 1231.419434
209 1158.364380 -417.834747 0.000477 -0.095385 0.076104 -105.915703 1231.419434
210 1158.364380 -417.834747 0.000477 -0.095385 0.076104 -105.915703 1231.419434
[Ping_Mechanism]
208 1260.543335 -351.240906 0.000877 0.000103 -0.000053 82.120995 1308.563965
209 1262.637939 -351.987610 0.000610 0.000103 -0.000053 82.120995 1310.782104
210 1259.200073 -376.828979 0.000687 0.000103 -0.000053 82.120995 1314.376221
[BN_LookIK]
208 193.241119 1380.371704 -0.002861 0.000000 89.965736 -31.038179 1393.832153
209 193.241119 1380.371704 -0.002861 0.000000 89.965736 -31.038179 1393.832153
210 193.241119 1380.371704 -0.002861 0.000000 89.965736 -31.038179 1393.832153
[bottomMouth]
208 -435.092926 615.759399 -0.000954 -0.000022 0.000016 73.527184 753.966492
209 -435.092926 615.759399 -0.000954 -0.000022 0.000016 73.527184 753.966492
210 -435.092926 615.759399 -0.000954 -0.000022 0.000016 73.527184 753.966492
[L_Mouth01]
208 554.440979 7.658243 838.222046 150.204178 23.759130 109.605339 1005.027161
209 554.440979 7.658243 838.222046 150.204178 23.759130 109.605339 1005.027161
210 554.440979 7.658243 838.222046 150.204178 23.759130 109.605339 1005.027161
[L_mouthFront]
208 551.629089 934.514771 339.150421 0.000081 2.804060 79.119301 1136.941284
209 551.629089 934.514771 339.150421 0.000081 2.804060 79.119301 1136.941284
210 551.629089 934.514771 339.150421 0.000081 2.804060 79.119301 1136.941284
[mouthGun]
208 55.332661 1627.420898 0.000000 0.000023 0.000009 -11.038128 1628.361328
209 55.332661 1627.420898 0.000000 0.000023 0.000009 -11.038128 1628.361328
210 55.332661 1627.420898 0.000000 0.000023 0.000009 -11.038128 1628.361328
[R_Mouth01]
208 554.442383 7.659197 -838.223938 29.795891 -23.759109 109.605331 1005.029541
209 554.442383 7.659197 -838.223938 29.795891 -23.759109 109.605331 1005.029541
210 554.442383 7.659197 -838.223938 29.795891 -23.759109 109.605331 1005.029541
[R_mouthFront]
208 551.629089 934.514282 -339.151367 0.000029 -2.803930 79.119133 1136.941162
209 551.629089 934.514282 -339.151367 0.000029 -2.803930 79.119133 1136.941162
210 551.629089 934.514282 -339.151367 0.000029 -2.803930 79.119133 1136.941162
[TopMouth]
208 461.269867 -56.106091 -0.008583 -0.000059 -0.000268 92.025169 464.669525
209 461.269867 -56.106091 -0.008583 -0.000059 -0.000268 92.025169 464.669525
210 461.269867 -56.106091 -0.008583 -0.000059 -0.000268 92.025169 464.669525
[weapon_bone]
208 -987.239868 1448.372803 0.001431 0.000000 89.965736 -31.038221 1752.833740
209 -987.239868 1448.372803 0.001431 0.000000 89.965736 -31.038221 1752.833740
210 -987.239868 1448.372803 0.001431 0.000000 89.965736 -31.038221 1752.833740
